<?xml version="1.0" standalone="no"?>
<!DOCTYPE svg PUBLIC "-//W3C//DTD SVG 20010904//EN"
 "http://www.w3.org/TR/2001/REC-SVG-20010904/DTD/svg10.dtd">
<svg version="1.0" xmlns="http://www.w3.org/2000/svg"
 width="59.769374pt" height="45.655555pt" viewBox="0 0 59.769374 45.655555"
 preserveAspectRatio="xMidYMid meet">
<metadata>
Created by potrace 1.16, written by Peter Selinger 2001-2019
</metadata>
<g transform="translate(-27.024273,46.708982) scale(0.100000,-0.100000)"
fill="#000000" stroke="none">
<path d="M332 448 c-37 -18 -80 -63 -53 -56 5 2 97 -84 204 -190 203 -200 202
-200 274 -186 65 13 119 90 110 156 -6 45 -43 105 -71 114 -10 4 -36 25 -57
48 -37 39 -41 41 -98 41 -52 0 -62 3 -80 27 -50 63 -151 84 -229 46z"/>
</g>
</svg>
