<?xml version="1.0" standalone="no"?>
<!DOCTYPE svg PUBLIC "-//W3C//DTD SVG 20010904//EN"
 "http://www.w3.org/TR/2001/REC-SVG-20010904/DTD/svg10.dtd">
<svg version="1.0" xmlns="http://www.w3.org/2000/svg"
 width="55.204670pt" height="41.750212pt" viewBox="0 0 55.204670 41.750212"
 preserveAspectRatio="xMidYMid meet">
<metadata>
Created by potrace 1.16, written by Peter Selinger 2001-2019
</metadata>
<g transform="translate(-1.228931,53.750212) scale(0.100000,-0.100000)"
fill="#000000" stroke="none">
<path d="M355 526 c-17 -7 -44 -27 -60 -45 -26 -28 -35 -31 -67 -26 -42 7 -69
-4 -113 -47 -16 -16 -45 -42 -64 -57 -30 -24 -35 -35 -38 -82 -7 -98 50 -149
166 -149 l61 0 0 44 c0 106 88 196 191 196 33 0 40 3 35 16 -3 8 -2 13 3 10 4
-3 17 4 27 15 10 12 31 27 47 35 26 14 26 16 11 39 -35 53 -135 79 -199 51z"/>
</g>
</svg>
