<?xml version="1.0" standalone="no"?>
<!DOCTYPE svg PUBLIC "-//W3C//DTD SVG 20010904//EN"
 "http://www.w3.org/TR/2001/REC-SVG-20010904/DTD/svg10.dtd">
<svg version="1.0" xmlns="http://www.w3.org/2000/svg"
 width="78.467200pt" height="42.803849pt" viewBox="0 0 78.467200 42.803849"
 preserveAspectRatio="xMidYMid meet">
<metadata>
Created by potrace 1.16, written by Peter Selinger 2001-2019
</metadata>
<g transform="translate(-0.850417,83.850361) scale(0.100000,-0.100000)"
fill="#000000" stroke="none">
<path d="M300 818 c-25 -13 -54 -37 -65 -55 -18 -28 -25 -31 -67 -31 -165 0
-220 -213 -78 -296 32 -19 54 -21 285 -24 295 -4 324 -1 370 39 63 56 64 156
3 202 -17 12 -44 36 -62 53 -44 45 -72 56 -114 50 -33 -6 -41 -2 -71 29 -55
57 -128 69 -201 33z"/>
</g>
</svg>
