<?xml version="1.0" standalone="no"?>
<!DOCTYPE svg PUBLIC "-//W3C//DTD SVG 20010904//EN"
 "http://www.w3.org/TR/2001/REC-SVG-20010904/DTD/svg10.dtd">
<svg version="1.0" xmlns="http://www.w3.org/2000/svg"
 width="121.472449pt" height="31.925598pt" viewBox="0 0 121.472449 31.925598"
 preserveAspectRatio="xMidYMid meet">
<metadata>
Created by potrace 1.16, written by Peter Selinger 2001-2019
</metadata>
<g transform="translate(-1.487856,44.925598) scale(0.100000,-0.100000)"
fill="#000000" stroke="none">
<path d="M265 442 c-34 -12 -74 -43 -80 -62 -5 -15 -15 -19 -45 -17 -122 5
-171 -136 -74 -212 22 -17 41 -21 103 -21 l76 0 1 38 c3 79 71 148 154 159 25
4 52 15 66 29 l23 24 -37 0 c-28 0 -44 7 -65 30 -16 17 -36 30 -45 30 -10 0
-26 2 -37 4 -11 3 -29 1 -40 -2z"/>
<path d="M913 443 c-12 -2 -37 -18 -55 -35 -25 -23 -43 -31 -73 -32 -46 -1
-59 -30 -15 -32 14 -1 35 -2 47 -3 21 -1 84 -48 146 -107 16 -16 30 -43 33
-66 l7 -38 79 0 c74 0 81 2 108 29 84 84 25 213 -92 202 -10 -1 -32 14 -49 33
-25 29 -87 60 -109 55 -3 -1 -15 -4 -27 -6z"/>
</g>
</svg>
