<?xml version="1.0" standalone="no"?>
<!DOCTYPE svg PUBLIC "-//W3C//DTD SVG 20010904//EN"
 "http://www.w3.org/TR/2001/REC-SVG-20010904/DTD/svg10.dtd">
<svg version="1.0" xmlns="http://www.w3.org/2000/svg"
 width="78.408619pt" height="42.883345pt" viewBox="0 0 78.408619 42.883345"
 preserveAspectRatio="xMidYMid meet">
<metadata>
Created by potrace 1.16, written by Peter Selinger 2001-2019
</metadata>
<g transform="translate(-1.003731,63.883345) scale(0.100000,-0.100000)"
fill="#000000" stroke="none">
<path d="M299 617 c-24 -13 -53 -37 -64 -55 -18 -28 -25 -31 -70 -32 -92 0
-155 -62 -155 -153 0 -107 71 -167 197 -167 53 0 54 1 69 38 9 20 27 63 41 95
l26 57 88 0 c49 0 89 -3 89 -7 0 -5 -14 -30 -30 -58 -39 -65 -39 -65 20 -65
56 0 57 -1 34 -35 l-16 -25 71 0 c112 0 171 34 192 112 14 53 -16 120 -66 149
-19 12 -40 30 -46 41 -15 28 -75 51 -111 43 -26 -6 -36 -2 -67 29 -61 60 -130
71 -202 33z"/>
</g>
</svg>
