<?xml version="1.0" standalone="no"?>
<!DOCTYPE svg PUBLIC "-//W3C//DTD SVG 20010904//EN"
 "http://www.w3.org/TR/2001/REC-SVG-20010904/DTD/svg10.dtd">
<svg version="1.0" xmlns="http://www.w3.org/2000/svg"
 width="78.563176pt" height="58.773611pt" viewBox="0 0 78.563176 58.773611"
 preserveAspectRatio="xMidYMid meet">
<metadata>
Created by potrace 1.16, written by Peter Selinger 2001-2019
</metadata>
<g transform="translate(-1.204547,59.773611) scale(0.100000,-0.100000)"
fill="#000000" stroke="none">
<path d="M314 581 c-23 -10 -54 -35 -70 -55 -25 -31 -35 -36 -72 -36 -164 0
-222 -220 -79 -298 34 -18 488 -31 586 -17 117 18 159 153 73 232 -20 19 -50
47 -67 63 -38 37 -83 54 -116 42 -20 -8 -29 -4 -61 29 -57 58 -124 72 -194 40z"/>
<path d="M396 88 c-28 -48 -26 -78 5 -78 23 0 43 67 31 101 -8 22 -10 21 -36
-23z"/>
<path d="M517 89 c-30 -51 -27 -82 6 -77 25 4 39 54 28 96 -7 27 -8 26 -34
-19z"/>
<path d="M288 103 c-42 -49 -45 -97 -5 -91 25 3 45 66 30 93 -8 14 -11 14 -25
-2z"/>
</g>
</svg>
