<?xml version="1.0" standalone="no"?>
<!DOCTYPE svg PUBLIC "-//W3C//DTD SVG 20010904//EN"
 "http://www.w3.org/TR/2001/REC-SVG-20010904/DTD/svg10.dtd">
<svg version="1.0" xmlns="http://www.w3.org/2000/svg"
 width="105.214870pt" height="76.926783pt" viewBox="0 0 105.214870 76.926783"
 preserveAspectRatio="xMidYMid meet">
<metadata>
Created by potrace 1.16, written by Peter Selinger 2001-2019
</metadata>
<g transform="translate(-1.124973,77.926783) scale(0.100000,-0.100000)"
fill="#000000" stroke="none">
<path d="M385 771 c-43 -11 -70 -27 -96 -58 -21 -25 -29 -28 -74 -25 -44 3
-54 0 -78 -24 -15 -14 -27 -30 -27 -34 0 -4 -13 -13 -30 -20 -104 -43 -86
-218 25 -246 32 -8 30 -11 70 82 33 76 36 79 72 84 21 3 56 17 78 32 23 16 62
31 89 34 39 6 57 15 88 46 21 21 45 38 53 38 24 0 18 16 -20 48 -28 26 -95 55
-115 51 -3 -1 -18 -4 -35 -8z"/>
<path d="M613 660 c-42 -10 -77 -33 -105 -70 -18 -26 -29 -30 -67 -30 -25 -1
-57 -7 -71 -15 l-25 -14 38 -1 c45 0 45 -5 7 -70 -40 -68 -39 -70 26 -70 l56
0 -52 -65 c-29 -36 -49 -69 -45 -73 3 -4 138 -8 298 -10 322 -3 331 -1 373 63
37 56 12 160 -45 189 -15 8 -44 31 -64 51 -34 34 -41 37 -85 33 -42 -3 -50 0
-71 25 -41 48 -107 71 -168 57z"/>
<path d="M665 178 c-41 -48 -50 -74 -35 -93 33 -40 67 -8 77 75 7 59 -4 64
-42 18z"/>
<path d="M803 157 c-46 -50 -52 -67 -28 -87 33 -27 80 38 73 102 l-3 31 -42
-46z"/>
<path d="M507 160 c-39 -34 -50 -76 -22 -86 22 -9 43 13 56 58 15 58 7 65 -34
28z"/>
<path d="M563 76 c-29 -36 -30 -66 -3 -66 25 0 32 17 28 61 l-3 34 -22 -29z"/>
<path d="M718 73 c-22 -24 -23 -53 -3 -53 19 0 28 20 23 50 -3 22 -3 22 -20 3z"/>
<path d="M838 70 c-22 -30 -23 -50 -3 -50 19 0 28 20 23 52 l-3 23 -17 -25z"/>
</g>
</svg>
