<?xml version="1.0" standalone="no"?>
<!DOCTYPE svg PUBLIC "-//W3C//DTD SVG 20010904//EN"
 "http://www.w3.org/TR/2001/REC-SVG-20010904/DTD/svg10.dtd">
<svg version="1.0" xmlns="http://www.w3.org/2000/svg"
 width="106.429627pt" height="66.088250pt" viewBox="0 0 106.429627 66.088250"
 preserveAspectRatio="xMidYMid meet">
<metadata>
Created by potrace 1.16, written by Peter Selinger 2001-2019
</metadata>
<g transform="translate(-1.192943,67.088250) scale(0.100000,-0.100000)"
fill="#000000" stroke="none">
<path d="M301 653 c-18 -9 -45 -33 -60 -52 -24 -33 -30 -36 -78 -36 -158 -2
-208 -201 -73 -293 32 -22 39 -22 317 -22 329 0 338 2 374 77 35 73 12 148
-56 180 -19 9 -37 25 -41 35 -9 29 -62 51 -107 45 -35 -5 -43 -2 -64 24 -50
59 -140 77 -212 42z"/>
<path d="M583 655 c-38 -16 -45 -40 -10 -31 34 8 92 -11 119 -40 13 -14 40
-36 60 -50 88 -57 105 -185 35 -261 l-20 -23 104 0 c138 0 185 27 204 118 9
42 -26 117 -64 137 -16 8 -44 30 -64 50 -34 34 -41 37 -85 33 -41 -3 -50 0
-69 23 -47 55 -140 75 -210 44z"/>
<path d="M436 172 c-29 -42 -33 -74 -12 -91 26 -22 56 20 56 79 0 60 -9 62
-44 12z"/>
<path d="M893 187 c-37 -47 -48 -86 -31 -104 37 -36 83 45 60 106 l-8 24 -21
-26z"/>
<path d="M726 161 c-39 -56 -24 -118 18 -76 14 14 25 115 12 115 -2 0 -16 -18
-30 -39z"/>
<path d="M282 166 c-30 -39 -37 -66 -20 -82 30 -30 67 39 48 90 -6 17 -8 17
-28 -8z"/>
<path d="M335 67 c-15 -29 -17 -39 -7 -49 19 -19 34 4 30 48 l-3 38 -20 -37z"/>
<path d="M788 80 c-19 -26 -24 -70 -9 -70 18 0 32 30 29 62 l-3 33 -17 -25z"/>
</g>
</svg>
