<?xml version="1.0" standalone="no"?>
<!DOCTYPE svg PUBLIC "-//W3C//DTD SVG 20010904//EN"
 "http://www.w3.org/TR/2001/REC-SVG-20010904/DTD/svg10.dtd">
<svg version="1.0" xmlns="http://www.w3.org/2000/svg"
 width="65.554621pt" height="42.635970pt" viewBox="0 0 65.554621 42.635970"
 preserveAspectRatio="xMidYMid meet">
<metadata>
Created by potrace 1.16, written by Peter Selinger 2001-2019
</metadata>
<g transform="translate(-41.147730,49.635970) scale(0.100000,-0.100000)"
fill="#000000" stroke="none">
<path d="M595 485 c-22 -8 -56 -32 -76 -54 -30 -34 -43 -41 -73 -41 -40 0 -42
-6 -22 -54 51 -123 204 -187 344 -145 23 7 45 10 48 6 6 -6 -26 -56 -65 -99
l-25 -28 112 0 c125 0 166 11 200 55 45 57 36 145 -19 187 -16 13 -47 40 -69
61 -36 35 -44 38 -88 36 -44 -2 -52 1 -84 32 -53 54 -114 68 -183 44z"/>
</g>
</svg>
