<?xml version="1.0" standalone="no"?>
<!DOCTYPE svg PUBLIC "-//W3C//DTD SVG 20010904//EN"
 "http://www.w3.org/TR/2001/REC-SVG-20010904/DTD/svg10.dtd">
<svg version="1.0" xmlns="http://www.w3.org/2000/svg"
 width="126.161632pt" height="71.730855pt" viewBox="0 0 126.161632 71.730855"
 preserveAspectRatio="xMidYMid meet">
<metadata>
Created by potrace 1.16, written by Peter Selinger 2001-2019
</metadata>
<g transform="translate(-1.105850,71.942507) scale(0.100000,-0.100000)"
fill="#000000" stroke="none">
<path d="M875 701 c-16 -10 -38 -27 -48 -39 -14 -16 -27 -19 -51 -15 -44 7
-82 -13 -65 -33 6 -8 26 -14 45 -14 45 0 84 -16 119 -49 17 -16 49 -46 72 -68
30 -28 45 -53 54 -86 l11 -47 83 0 c69 0 87 4 116 23 116 78 58 257 -83 257
-29 0 -41 6 -57 29 -42 58 -137 79 -196 42z"/>
<path d="M505 646 c-22 -8 -56 -33 -76 -55 -32 -36 -42 -41 -78 -41 -48 0 -85
-17 -120 -53 -33 -36 -19 -51 24 -25 41 24 88 19 129 -13 32 -25 33 -39 1 -69
-23 -22 -25 -22 -51 -5 -17 11 -29 14 -36 7 -25 -25 7 -32 143 -32 78 0 149
-5 160 -10 20 -11 26 -49 9 -66 -5 -5 -7 -19 -4 -32 6 -21 10 -22 133 -22 100
0 133 4 161 18 90 45 107 156 34 219 -22 18 -52 46 -69 63 -35 35 -79 50 -117
39 -22 -6 -30 -3 -42 16 -38 57 -131 86 -201 61z"/>
<path d="M87 432 c-24 -27 -22 -85 4 -108 19 -18 39 -19 255 -19 149 0 234 4
234 10 0 6 -57 11 -147 13 -160 3 -176 8 -171 55 4 40 29 55 68 40 34 -13 51
0 21 16 -61 33 -117 -3 -108 -69 l5 -40 -68 0 c-75 0 -94 11 -88 56 4 38 30
52 70 36 38 -14 51 -6 24 14 -28 20 -80 18 -99 -4z"/>
<path d="M1016 297 c-14 -21 -16 -31 -7 -40 17 -17 33 5 29 39 l-3 29 -19 -28z"/>
<path d="M1092 300 c-16 -26 -15 -50 2 -50 16 0 31 49 19 61 -5 5 -14 0 -21
-11z"/>
<path d="M32 267 c-44 -47 -14 -117 49 -117 36 0 72 17 64 31 -4 6 -13 5 -25
-1 -58 -31 -110 13 -76 65 l16 25 225 0 c138 0 226 4 230 10 4 7 -74 10 -228
10 -231 0 -234 0 -255 -23z"/>
<path d="M220 253 c-25 -9 -40 -35 -40 -68 0 -51 48 -82 100 -64 43 16 37 30
-10 23 -46 -7 -70 7 -70 41 0 49 23 55 203 55 105 0 167 4 167 10 0 10 -322
13 -350 3z"/>
<path d="M853 188 c-58 -65 -66 -118 -18 -118 30 0 44 25 52 90 6 55 -2 62
-34 28z"/>
<path d="M981 155 c-44 -48 -49 -70 -18 -89 25 -15 54 21 63 80 9 61 4 62 -45
9z"/>
<path d="M690 163 c-50 -42 -60 -93 -19 -93 23 0 45 33 53 83 8 44 7 45 -34
10z"/>
<path d="M742 75 c-24 -30 -26 -65 -5 -72 17 -6 35 33 31 70 l-3 32 -23 -30z"/>
<path d="M898 70 c-22 -30 -23 -50 -3 -50 19 0 28 20 23 52 l-3 23 -17 -25z"/>
<path d="M1018 70 c-22 -30 -23 -50 -3 -50 19 0 28 20 23 52 l-3 23 -17 -25z"/>
</g>
</svg>
