<?xml version="1.0" standalone="no"?>
<!DOCTYPE svg PUBLIC "-//W3C//DTD SVG 20010904//EN"
 "http://www.w3.org/TR/2001/REC-SVG-20010904/DTD/svg10.dtd">
<svg version="1.0" xmlns="http://www.w3.org/2000/svg"
 width="96.560174pt" height="53.702563pt" viewBox="0 0 96.560174 53.702563"
 preserveAspectRatio="xMidYMid meet">
<metadata>
Created by potrace 1.16, written by Peter Selinger 2001-2019
</metadata>
<g transform="translate(-1.108483,54.702563) scale(0.100000,-0.100000)"
fill="#000000" stroke="none">
<path d="M485 530 c-22 -11 -50 -35 -63 -52 -19 -29 -28 -33 -71 -34 -53 -1
-107 -28 -129 -64 -18 -29 -8 -36 22 -16 45 29 145 10 160 -31 16 -40 -34 -74
-76 -52 -14 8 -23 8 -31 0 -18 -18 32 -28 168 -30 147 -2 167 -10 149 -59 -22
-59 -16 -62 133 -62 118 0 140 3 168 20 84 52 82 187 -5 232 -14 7 -39 29 -56
48 -29 32 -36 35 -88 35 -47 0 -58 4 -72 24 -39 56 -140 76 -209 41z"/>
<path d="M80 321 c-16 -31 -12 -79 10 -101 19 -19 33 -20 255 -20 150 0 235 4
235 10 0 6 -55 10 -144 10 -160 0 -176 6 -176 61 0 35 31 52 68 38 35 -13 46
-11 32 6 -18 22 -83 19 -105 -5 -13 -15 -16 -30 -12 -60 l5 -40 -63 0 c-72 0
-95 14 -95 60 0 37 28 54 65 40 38 -14 50 -13 35 5 -19 23 -97 20 -110 -4z"/>
<path d="M63 183 c-13 -2 -30 -14 -38 -26 -47 -67 35 -151 101 -103 25 19 12
31 -16 16 -46 -25 -90 11 -75 61 11 34 47 39 271 39 141 0 213 3 209 10 -6 10
-404 12 -452 3z"/>
<path d="M200 130 c-45 -45 -14 -120 50 -120 31 0 68 24 52 34 -6 3 -13 2 -17
-4 -9 -14 -58 -13 -73 2 -17 17 -15 63 5 79 12 10 59 15 181 17 91 1 168 4
170 7 3 3 -74 5 -171 5 -164 0 -179 -2 -197 -20z"/>
</g>
</svg>
