<?xml version="1.0" standalone="no"?>
<!DOCTYPE svg PUBLIC "-//W3C//DTD SVG 20010904//EN"
 "http://www.w3.org/TR/2001/REC-SVG-20010904/DTD/svg10.dtd">
<svg version="1.0" xmlns="http://www.w3.org/2000/svg"
 width="96.791792pt" height="53.677569pt" viewBox="0 0 96.791792 53.677569"
 preserveAspectRatio="xMidYMid meet">
<metadata>
Created by potrace 1.16, written by Peter Selinger 2001-2019
</metadata>
<g transform="translate(-1.139661,55.023803) scale(0.100000,-0.100000)"
fill="#000000" stroke="none">
<path d="M477 527 c-21 -13 -47 -36 -57 -52 -16 -24 -25 -29 -53 -27 -44 4
-112 -24 -137 -55 -26 -33 -15 -49 17 -27 52 33 152 8 161 -40 7 -36 -55 -75
-73 -46 -10 15 -35 12 -35 -5 0 -13 22 -15 141 -15 176 0 183 -3 174 -76 l-6
-54 133 0 c152 0 188 12 220 71 37 68 14 145 -55 188 -19 12 -37 28 -40 36
-10 25 -67 48 -109 42 -31 -4 -41 -1 -56 18 -53 66 -153 85 -225 42z"/>
<path d="M110 343 c-43 -16 -55 -87 -19 -119 19 -17 41 -19 251 -22 153 -2
235 1 241 7 8 8 -32 11 -134 11 -163 0 -189 8 -189 61 0 38 37 58 75 41 31
-14 35 -15 35 -3 0 15 -56 32 -82 26 -35 -9 -52 -45 -44 -89 l7 -36 -58 0
c-72 0 -103 19 -103 61 0 39 37 58 76 40 28 -12 44 -7 28 9 -12 12 -65 21 -84
13z"/>
<path d="M35 165 c-58 -58 2 -145 79 -115 14 5 26 15 26 21 0 7 -7 8 -17 4
-40 -17 -52 -16 -72 4 -26 26 -27 45 -1 71 19 19 33 20 245 20 143 0 225 4
225 10 0 6 -83 10 -230 10 l-231 0 -24 -25z"/>
<path d="M233 153 c-53 -10 -70 -84 -28 -123 28 -26 94 -20 103 9 4 11 0 12
-14 6 -75 -31 -127 22 -74 75 18 18 33 20 185 20 103 0 165 4 165 10 0 10
-289 12 -337 3z"/>
</g>
</svg>
