<?xml version="1.0" standalone="no"?>
<!DOCTYPE svg PUBLIC "-//W3C//DTD SVG 20010904//EN"
 "http://www.w3.org/TR/2001/REC-SVG-20010904/DTD/svg10.dtd">
<svg version="1.0" xmlns="http://www.w3.org/2000/svg"
 width="96.336057pt" height="53.962965pt" viewBox="0 0 96.336057 53.962965"
 preserveAspectRatio="xMidYMid meet">
<metadata>
Created by potrace 1.16, written by Peter Selinger 2001-2019
</metadata>
<g transform="translate(-2.600465,54.976820) scale(0.100000,-0.100000)"
fill="#000000" stroke="none">
<path d="M502 533 c-19 -9 -48 -34 -65 -55 -21 -27 -36 -37 -48 -33 -32 11
-91 -7 -125 -37 -47 -41 -46 -78 0 -43 43 33 156 1 156 -43 0 -36 -59 -68 -75
-42 -10 15 -35 12 -35 -5 0 -13 22 -15 141 -15 176 0 183 -3 174 -76 l-6 -54
136 0 c153 0 182 9 215 63 40 64 15 158 -49 192 -17 8 -35 24 -41 35 -17 31
-68 53 -109 46 -32 -5 -40 -1 -66 26 -54 57 -137 74 -203 41z"/>
<path d="M105 325 c-32 -31 -32 -69 0 -100 l24 -25 236 0 c150 0 235 4 235 10
0 6 -55 10 -145 10 -132 0 -147 2 -165 20 -43 43 -2 102 55 80 31 -12 48 -4
25 11 -67 43 -144 -16 -111 -87 l11 -24 -63 0 c-40 0 -70 6 -85 16 -50 35 -6
106 52 84 45 -17 54 -1 11 18 -38 17 -53 15 -80 -13z"/>
<path d="M70 177 c-88 -44 -32 -165 59 -127 39 16 31 32 -9 17 -41 -15 -64 0
-68 45 -5 54 15 58 263 58 137 0 215 4 215 10 0 16 -429 13 -460 -3z"/>
<path d="M239 149 c-47 -17 -61 -71 -28 -113 22 -28 56 -34 90 -16 28 16 24
32 -5 19 -50 -23 -97 11 -81 60 9 28 19 30 200 37 90 4 162 11 159 16 -7 11
-303 9 -335 -3z"/>
</g>
</svg>
