<?xml version="1.0" standalone="no"?>
<!DOCTYPE svg PUBLIC "-//W3C//DTD SVG 20010904//EN"
 "http://www.w3.org/TR/2001/REC-SVG-20010904/DTD/svg10.dtd">
<svg version="1.0" xmlns="http://www.w3.org/2000/svg"
 width="90.140858pt" height="52.593176pt" viewBox="0 0 90.140858 52.593176"
 preserveAspectRatio="xMidYMid meet">
<metadata>
Created by potrace 1.16, written by Peter Selinger 2001-2019
</metadata>
<g transform="translate(-0.859142,53.800175) scale(0.100000,-0.100000)"
fill="#000000" stroke="none">
<path d="M394 526 c-35 -16 -48 -31 -39 -46 4 -6 17 -4 35 5 40 21 93 19 113
-3 26 -28 22 -88 -8 -117 l-24 -25 -225 0 c-219 0 -264 -6 -225 -31 19 -12
620 -11 693 1 68 11 92 29 106 79 29 108 -60 178 -165 132 -40 -18 -46 -23
-35 -36 11 -13 15 -13 41 0 63 33 129 6 129 -54 0 -73 -33 -91 -164 -91 l-95
0 15 35 c44 107 -46 197 -152 151z"/>
<path d="M120 275 c0 -17 -31 -16 390 -18 344 -2 353 -4 366 -72 13 -72 -44
-111 -118 -82 -63 25 -84 1 -24 -27 93 -44 176 -1 176 91 0 58 -19 90 -66 109
-51 22 -724 21 -724 -1z"/>
<path d="M35 229 c-13 -20 5 -21 262 -23 278 -2 286 -3 309 -48 41 -79 -34
-145 -117 -103 -29 15 -49 13 -49 -5 0 -36 129 -53 166 -22 72 58 52 178 -33
201 -52 15 -530 15 -538 0z"/>
</g>
</svg>
