<?xml version="1.0" standalone="no"?>
<!DOCTYPE svg PUBLIC "-//W3C//DTD SVG 20010904//EN"
 "http://www.w3.org/TR/2001/REC-SVG-20010904/DTD/svg10.dtd">
<svg version="1.0" xmlns="http://www.w3.org/2000/svg"
 width="78.875861pt" height="91.455464pt" viewBox="0 0 78.875861 91.455464"
 preserveAspectRatio="xMidYMid meet">
<metadata>
Created by potrace 1.16, written by Peter Selinger 2001-2019
</metadata>
<g transform="translate(-1.124139,92.311730) scale(0.100000,-0.100000)"
fill="#000000" stroke="none">
<path d="M487 895 c-70 -66 -85 -125 -35 -141 38 -12 63 25 77 116 10 64 3 68
-42 25z"/>
<path d="M712 866 c-77 -81 -82 -141 -12 -141 42 0 65 41 75 133 9 76 2 77
-63 8z"/>
<path d="M558 759 c-25 -14 -59 -75 -52 -93 9 -24 41 -19 59 8 22 34 17 99 -7
85z"/>
<path d="M765 699 c-14 -18 -25 -39 -23 -48 4 -22 43 -21 42 1 -1 10 2 15 7
12 5 -3 9 11 9 30 0 44 -2 44 -35 5z"/>
<path d="M386 683 c-4 -4 -40 -6 -81 -4 -114 4 -210 -45 -271 -141 -29 -46
-30 -58 -4 -58 27 0 70 -22 94 -49 17 -19 26 -21 77 -15 95 11 95 10 33 -161
-29 -82 -54 -164 -54 -181 0 -73 101 -91 135 -23 19 36 19 49 0 49 -8 0 -15
-6 -15 -13 0 -18 -32 -47 -52 -47 -50 0 -31 103 61 323 l16 38 43 -30 c23 -17
42 -36 42 -41 0 -6 21 -10 48 -10 31 0 61 -8 89 -25 l43 -24 6 25 c13 52 -1
168 -26 218 -25 50 -111 136 -136 136 -8 0 -14 9 -14 20 0 20 -20 27 -34 13z"/>
</g>
</svg>
