<?xml version="1.0" standalone="no"?>
<!DOCTYPE svg PUBLIC "-//W3C//DTD SVG 20010904//EN"
 "http://www.w3.org/TR/2001/REC-SVG-20010904/DTD/svg10.dtd">
<svg version="1.0" xmlns="http://www.w3.org/2000/svg"
 width="69.972393pt" height="80.888276pt" viewBox="0 0 69.972393 80.888276"
 preserveAspectRatio="xMidYMid meet">
<metadata>
Created by potrace 1.16, written by Peter Selinger 2001-2019
</metadata>
<g transform="translate(-1.076994,81.924279) scale(0.100000,-0.100000)"
fill="#000000" stroke="none">
<path d="M375 801 c-4 -14 -18 -20 -59 -23 -139 -11 -276 -136 -302 -273 -6
-34 -5 -37 10 -32 28 11 94 -4 129 -28 32 -21 32 -21 69 -2 21 10 56 21 78 24
l40 6 -1 -49 c0 -27 -6 -114 -13 -194 -14 -160 -9 -195 31 -211 43 -16 70 -10
97 22 26 31 37 99 16 99 -11 0 -14 -7 -24 -53 -8 -36 -45 -54 -76 -37 -22 12
-23 15 -16 114 14 198 23 296 28 301 7 8 69 -15 101 -37 23 -17 32 -18 63 -8
35 12 97 9 143 -5 24 -8 24 -8 18 54 -11 123 -106 247 -222 290 -31 12 -60 21
-65 21 -5 0 -12 9 -15 20 -8 25 -22 26 -30 1z"/>
</g>
</svg>
