<svg xmlns="http://www.w3.org/2000/svg" viewBox="0 0 512 512">
  <defs>
    <linearGradient id="bg" x1="0" y1="0" x2="1" y2="1">
      <stop offset="0%" stop-color="#8b34ea"/>
      <stop offset="35%" stop-color="#2d1a65"/>
      <stop offset="70%" stop-color="#5058b8"/>
      <stop offset="100%" stop-color="#37246d"/>
    </linearGradient>
    <style>
      .tile{rx:48; ry:48}
    </style>
  </defs>
  <rect width="512" height="512" fill="url(#bg)"/>
  <!-- Grid 2x2 padding -->
  <g transform="translate(56,56)">
    <!-- top-left: sun -->
    <rect class="tile" x="0" y="0" width="200" height="200" fill="rgba(255,255,255,0.06)"/>
    <g transform="translate(100,100)">
      <circle r="46" fill="#f6c945"/>
      <g stroke="#f6c945" stroke-width="12" stroke-linecap="round">
        <line x1="0" y1="-78" x2="0" y2="-58"/>
        <line x1="0" y1="78" x2="0" y2="58"/>
        <line x1="78" y1="0" x2="58" y2="0"/>
        <line x1="-78" y1="0" x2="-58" y2="0"/>
        <line x1="55" y1="-55" x2="41" y2="-41"/>
        <line x1="-55" y1="55" x2="-41" y2="41"/>
        <line x1="55" y1="55" x2="41" y2="41"/>
        <line x1="-55" y1="-55" x2="-41" y2="-41"/>
      </g>
    </g>

    <!-- top-right: rain cloud -->
    <rect class="tile" x="200" y="0" width="200" height="200" fill="rgba(255,255,255,0.06)"/>
    <g transform="translate(300,110)">
      <ellipse cx="-20" cy="-20" rx="46" ry="34" fill="#d9def7"/>
      <ellipse cx="20" cy="-24" rx="38" ry="28" fill="#cfd5f6"/>
      <rect x="-70" y="-10" width="140" height="42" rx="21" fill="#c5ccf5"/>
      <g stroke="#8d34ea" stroke-width="10" stroke-linecap="round">
        <line x1="-40" y1="50" x2="-50" y2="80"/>
        <line x1="-10" y1="50" x2="-15" y2="85"/>
        <line x1="20" y1="50" x2="15" y2="85"/>
        <line x1="50" y1="50" x2="45" y2="80"/>
      </g>
    </g>

    <!-- bottom-left: fog -->
    <rect class="tile" x="0" y="200" width="200" height="200" fill="rgba(255,255,255,0.06)"/>
    <g transform="translate(100,300)" stroke="#8b34ea" stroke-width="14" stroke-linecap="round">
      <line x1="-70" y1="-30" x2="70" y2="-30"/>
      <line x1="-80" y1="0" x2="80" y2="0"/>
      <line x1="-60" y1="30" x2="60" y2="30"/>
    </g>

    <!-- bottom-right: wave -->
    <rect class="tile" x="200" y="200" width="200" height="200" fill="rgba(255,255,255,0.06)"/>
    <g transform="translate(300,300)">
      <path d="M-90,20 C-50,0 -30,0 0,14 C30,28 60,28 90,14" fill="none" stroke="#5058b8" stroke-width="16" stroke-linecap="round"/>
      <path d="M0,14 q-8,18 -24,18" fill="none" stroke="#8b34ea" stroke-width="12" stroke-linecap="round"/>
    </g>
  </g>
</svg>


